<?xml version="1.0" encoding="UTF-8" standalone="no"?>
<!-- Created with Inkscape (http://www.inkscape.org/) -->

<svg
   width="64"
   height="64"
   viewBox="0 0 57.6 57.6"
   version="1.1"
   id="svg5"
   inkscape:version="1.1.2 (0a00cf5339, 2022-02-04)"
   sodipodi:docname="favicon.svg"
   xmlns:inkscape="http://www.inkscape.org/namespaces/inkscape"
   xmlns:sodipodi="http://sodipodi.sourceforge.net/DTD/sodipodi-0.dtd"
   xmlns="http://www.w3.org/2000/svg"
   xmlns:svg="http://www.w3.org/2000/svg">
  <sodipodi:namedview
     id="namedview7"
     pagecolor="#ffffff"
     bordercolor="#666666"
     borderopacity="1.0"
     inkscape:pageshadow="2"
     inkscape:pageopacity="0.51372549"
     inkscape:pagecheckerboard="0"
     inkscape:document-units="px"
     showgrid="false"
     units="px"
     width="64px"
     scale-x="0.7"
     inkscape:zoom="5.9794052"
     inkscape:cx="42.14466"
     inkscape:cy="56.443741"
     inkscape:window-width="1920"
     inkscape:window-height="1136"
     inkscape:window-x="0"
     inkscape:window-y="27"
     inkscape:window-maximized="1"
     inkscape:current-layer="text3535"
     showguides="false" />
  <defs
     id="defs2">
    <filter
       inkscape:label="Pixellize"
       inkscape:menu="Pixel Tools"
       inkscape:menu-tooltip="Reduce or remove antialiasing around shapes"
       style="color-interpolation-filters:sRGB;"
       id="filter56122"
       x="0"
       y="0"
       width="1"
       height="1">
      <feColorMatrix
         values="1 0 0 0 0 0 1 0 0 0 0 0 1 0 0 0 0 0 1000 -500 "
         id="feColorMatrix56120" />
    </filter>
  </defs>
  <g
     inkscape:label="Layer 1"
     inkscape:groupmode="layer"
     id="layer1">
    <g
       aria-label="&lt;D&gt;"
       id="text16886"
       style="font-size:35.3372px;line-height:1.25;font-family:code;-inkscape-font-specification:code;stroke-width:0.883429;filter:url(#filter56122)">
      <circle
         style="fill:#167dff;fill-opacity:1;stroke-width:0.795086"
         id="path145254"
         cx="28.799999"
         cy="28.799999"
         r="28.799999" />
      <g
         aria-label="#!/"
         id="text2295"
         style="font-size:36px;font-family:Ubuntu;-inkscape-font-specification:'Ubuntu, Normal';fill:#e6e6e6;stroke-width:0.7947">
        <g
           aria-label="M#"
           id="text3535"
           style="font-weight:bold;font-size:40.8px;font-family:'Fira Code';-inkscape-font-specification:'Fira Code, Bold';fill:#ffffff">
          <path
             d="M 28.492799,43.159634 H 22.6176 l -0.3264,-12.1176 q -0.0408,-0.8976 -0.0408,-2.448 0,-2.04 0.1224,-3.9576 0.1224,-1.9584 0.2856,-4.08 l -3.1824,17.7888 h -5.0592 l -3.468,-17.7888 q 0.4488,4.692 0.4488,8.4456 l -0.0408,2.1624 -0.204,11.9952 H 5.3999999 l 1.5912,-28.2744 H 13.8864 l 3.1416,18.2784 2.9784,-18.2784 h 6.8952 z"
             id="path6249" />
          <path
             d="m 49.219136,24.962834 -1.02,8.0376 h 2.5704 v 4.2432 h -3.1416 l -0.7752,5.916 h -5.304 l 0.7752,-5.916 h -3.9168 l -0.7752,5.916 h -5.304 l 0.7344,-5.916 h -2.448 v -4.2432 h 3.0192 l 1.0608,-8.0376 h -2.5704 v -4.284 h 3.1416 l 0.7344,-5.7936 h 5.3448 l -0.7752,5.7936 h 3.9168 l 0.7752,-5.7936 h 5.304 l -0.7752,5.7936 h 2.4888 v 4.284 z m -10.2816,8.0376 h 3.9168 l 1.0608,-8.0376 h -3.9168 z"
             id="path6251" />
        </g>
      </g>
    </g>
  </g>
</svg>
